<?xml version="1.0" encoding="utf-8"?>
<!-- Generator: Adobe Illustrator 26.3.1, SVG Export Plug-In . SVG Version: 6.00 Build 0)  -->
<svg version="1.2" baseProfile="tiny" id="Layer_1" xmlns="http://www.w3.org/2000/svg" xmlns:xlink="http://www.w3.org/1999/xlink"
	 x="0px" y="0px" viewBox="0 0 200 50" overflow="visible" xml:space="preserve">
<g>
	<path fill="#FFFFFF" d="M45.55,8.23c0-0.37-0.3-0.67-0.67-0.67h-5.58c-0.37,0-0.67,0.3-0.67,0.67v23.59h6.93V8.23z"/>
	<path fill="#FFFFFF" d="M52.48,35.98c0-0.38-0.31-0.69-0.69-0.69H25.43c-0.37,0-0.67-0.3-0.67-0.67V8.23c0-0.37-0.3-0.67-0.67-0.67
		h-5.58c-0.37,0-0.67,0.3-0.67,0.67v27.05v0c0,3.83,3.1,6.93,6.93,6.93h20.12c0.37,0,0.67,0.3,0.67,0.67v2.82h6.93V35.98z"/>
</g>
<g>
	<g>
		<path fill="#FFFFFF" d="M139.92,42.33h6.93c0,0,0,0,0,0V13.91c0-3.45-2.79-6.24-6.24-6.24h-14.56c-3.83,0-6.93,3.1-6.93,6.93
			h20.12c0.37,0,0.67,0.3,0.67,0.67L139.92,42.33z"/>
	</g>
	<polygon fill="#FFFFFF" points="119.12,18.07 119.12,42.33 126.05,42.33 126.06,42.33 126.06,18.07 	"/>
</g>
<g>
	<path fill="#FFFFFF" d="M112.19,31.93h-6.93v2.79c0,0.37-0.3,0.67-0.67,0.67H84.46v0c0,3.83,3.1,6.93,6.93,6.93h14.05
		c3.73,0,6.75-3.02,6.75-6.75V31.93z"/>
	<path fill="#FFFFFF" d="M105.26,18.07v-2.79c0-0.37-0.3-0.67-0.67-0.67H92.07c-0.37,0-0.67,0.3-0.67,0.67v16.66h-6.93V14.6
		c0-3.83,3.1-6.93,6.93-6.93h14.05c3.73,0,6.75,3.02,6.75,6.75v3.65H105.26z"/>
</g>
<g>
	<rect x="63.55" y="18.07" fill="#FFFFFF" width="6.93" height="24.26"/>
	<path fill="#FFFFFF" d="M74.13,14.6c3.73,0,6.75-3.02,6.75-6.75V7.67H59.9c-3.73,0-6.75,3.02-6.75,6.75v0.18H74.13z"/>
</g>
<g>
	<path fill="#FFFFFF" d="M174.58,42.44h6.93V8.46c0-0.37-0.3-0.67-0.67-0.67h-5.58c-0.37,0-0.67,0.3-0.67,0.67V42.44z"/>
	<path fill="#FFFFFF" d="M153.78,42.44h6.93v-5.29c0-0.18,0.07-0.36,0.2-0.49l10.31-9.89v-9.8l-9.92,9.51
		c-0.22,0.22-0.59,0.06-0.59-0.25v-18c0-0.37-0.3-0.67-0.67-0.67h-5.58c-0.37,0-0.67,0.3-0.67,0.67V42.44z"/>
</g>
</svg>
